<svg width="45" height="44" viewBox="0 0 45 44" fill="none" xmlns="http://www.w3.org/2000/svg">
<path d="M39.1677 18.5463H35.4034C35.7094 19.648 35.8625 20.7498 35.8625 21.8515C35.8625 23.6878 35.5105 25.4322 34.8066 27.0849C34.1027 28.7375 33.1387 30.1759 31.9145 31.4001C30.6903 32.6243 29.2519 33.5883 27.5993 34.2922C25.9466 34.9961 24.2022 35.3481 22.3659 35.3481C20.5297 35.3481 18.8005 34.9961 17.1785 34.2922C15.5564 33.5883 14.1333 32.6243 12.9092 31.4001C11.685 30.1759 10.721 28.7375 10.017 27.0849C9.31315 25.4322 8.9612 23.6878 8.9612 21.8515C8.9612 20.7498 9.11422 19.648 9.42026 18.5463H5.56411V37.0007C5.56411 37.4904 5.73244 37.8882 6.06908 38.1943C6.40573 38.5003 6.81889 38.6533 7.30856 38.6533H37.5151C38.0048 38.6533 38.4026 38.5003 38.7087 38.1943C39.0147 37.8882 39.1677 37.4904 39.1677 37.0007V18.5463ZM39.1677 6.79417C39.1677 6.3045 39.0147 5.89134 38.7087 5.5547C38.4026 5.21805 38.0048 5.04972 37.5151 5.04972H32.4654C31.9757 5.04972 31.5778 5.21805 31.2718 5.5547C30.9658 5.89134 30.8127 6.3045 30.8127 6.79417V11.7521C30.8127 12.2418 30.9658 12.6549 31.2718 12.9916C31.5778 13.3282 31.9757 13.4965 32.4654 13.4965H37.5151C38.0048 13.4965 38.4026 13.3282 38.7087 12.9916C39.0147 12.6549 39.1677 12.2418 39.1677 11.7521V6.79417ZM22.3659 13.4965C20.04 13.4965 18.066 14.3076 16.444 15.9296C14.8219 17.5516 14.0109 19.5256 14.0109 21.8515C14.0109 23.0145 14.2252 24.1163 14.6536 25.1568C15.0821 26.1974 15.6789 27.1002 16.444 27.8653C17.2091 28.6304 18.0966 29.2272 19.1066 29.6557C20.1165 30.0841 21.203 30.2983 22.3659 30.2983C23.5289 30.2983 24.6306 30.0841 25.6712 29.6557C26.7117 29.2272 27.6146 28.6304 28.3797 27.8653C29.1448 27.1002 29.7416 26.1974 30.17 25.1568C30.5985 24.1163 30.8127 23.0145 30.8127 21.8515C30.8127 20.6886 30.5985 19.6021 30.17 18.5922C29.7416 17.5822 29.1448 16.6947 28.3797 15.9296C27.6146 15.1645 26.7117 14.5677 25.6712 14.1392C24.6306 13.7108 23.5289 13.4965 22.3659 13.4965ZM5.56411 43.7031C4.15631 43.7031 2.97804 43.2134 2.02931 42.2341C1.08057 41.2547 0.606201 40.0611 0.606201 38.6533V5.04972C0.606201 3.64192 1.08057 2.44835 2.02931 1.46901C2.97804 0.48967 4.15631 0 5.56411 0H39.1677C40.5755 0 41.7691 0.48967 42.7484 1.46901C43.7278 2.44835 44.2174 3.64192 44.2174 5.04972V38.6533C44.2174 40.0611 43.7278 41.2547 42.7484 42.2341C41.7691 43.2134 40.5755 43.7031 39.1677 43.7031H5.56411Z" fill="white"/>
</svg>
