<svg width="45" height="45" viewBox="0 0 45 45" fill="none" xmlns="http://www.w3.org/2000/svg">
<path d="M2.26758 0H6.33033L8.97584 9.16481H9.25929L11.8103 0H15.8731L11.1489 13.4165V22.8648H7.08619V13.7945L2.26758 0ZM16.1565 9.82618C16.1565 8.50343 16.6604 7.46412 17.6682 6.70826C18.6131 5.9524 19.9043 5.57447 21.542 5.57447C23.1167 5.57447 24.345 5.98389 25.2268 6.80274C26.1717 7.68458 26.6441 8.72389 26.6441 9.92067V18.7075C26.6441 20.1563 26.2032 21.2586 25.3213 22.0144C24.3135 22.8963 23.0222 23.3372 21.4475 23.3372C19.8728 23.3372 18.5816 22.8963 17.5738 22.0144C16.6289 21.1956 16.1565 20.0618 16.1565 18.6131V9.82618ZM19.9358 18.8965C19.9358 19.4004 20.0618 19.7783 20.3137 20.0303C20.4397 20.1563 20.5814 20.2508 20.7389 20.3137C20.8964 20.3767 21.1326 20.4082 21.4475 20.4082C21.8885 20.4082 22.2664 20.2508 22.5813 19.9358C22.8333 19.7469 22.9593 19.4004 22.9593 18.8965V9.7317C22.9593 9.35377 22.8333 9.07032 22.5813 8.88136C22.3294 8.62941 21.9514 8.50343 21.4475 8.50343C20.9436 8.50343 20.5657 8.62941 20.3137 8.88136C20.0618 9.07032 19.9358 9.35377 19.9358 9.7317V18.8965ZM39.9661 5.9524V22.8648H36.2813V20.9751C35.7144 21.668 35.0215 22.2034 34.2027 22.5813C33.5098 22.9593 32.8169 23.1482 32.1241 23.1482C31.3682 23.1482 30.7383 22.8963 30.2344 22.3924C29.7935 21.7625 29.573 21.0066 29.573 20.1248V5.9524H33.2579V18.8965C33.2579 19.4004 33.3208 19.6839 33.4468 19.7469C33.6358 19.9358 33.8877 20.0303 34.2027 20.0303C34.3916 20.0303 34.7381 19.9358 35.242 19.7469C35.7459 19.3689 36.0923 19.054 36.2813 18.802V5.9524H39.9661ZM11.0545 23.3372H0V26.2661H3.68482V44.0289H7.27516V26.2661H11.0545V23.3372ZM18.4241 40.344C18.1721 40.722 17.8257 41.0054 17.3848 41.1944C17.0698 41.3834 16.7864 41.4778 16.5344 41.4778C16.3455 41.4778 16.125 41.4148 15.8731 41.2889C15.7471 41.0369 15.6841 40.7535 15.6841 40.4385V28.7227H12.4717V41.5723C12.4717 42.4542 12.6607 43.1155 13.0386 43.5564C13.4165 44.0604 13.9834 44.3123 14.7393 44.3123C15.3692 44.3123 15.9675 44.1233 16.5344 43.7454C17.2273 43.4305 17.8572 42.9581 18.4241 42.3282V44.0289H21.6365V28.7227H18.4241V40.344ZM32.502 29.4786C31.8721 28.8487 31.0848 28.5337 30.1399 28.5337C29.636 28.5337 29.1321 28.6597 28.6282 28.9117C28.3133 29.0376 27.8723 29.3841 27.3055 29.951V23.3372H24.093V44.0289H27.3055V42.8951C27.4944 43.147 27.6991 43.3517 27.9196 43.5092C28.1401 43.6667 28.3763 43.8084 28.6282 43.9344C29.1951 44.1233 29.762 44.2178 30.3289 44.2178C31.2737 44.2178 31.9981 43.9344 32.502 43.3675C33.0059 42.8636 33.2579 42.0447 33.2579 40.9109V32.4075C33.2579 31.1477 33.0059 30.1714 32.502 29.4786ZM29.951 40.4385C29.951 40.9424 29.8565 41.2889 29.6675 41.4778C29.4786 41.7298 29.1951 41.8558 28.8172 41.8558C28.6912 41.8558 28.4392 41.7928 28.0613 41.6668C27.8723 41.6038 27.6204 41.4148 27.3055 41.0999V31.5572C27.4944 31.3682 27.7149 31.2107 27.9668 31.0848C28.0928 31.0218 28.3133 30.9903 28.6282 30.9903C29.0691 30.9903 29.4156 31.1163 29.6675 31.3682C29.8565 31.6831 29.951 32.0926 29.951 32.5965V40.4385ZM44.4068 36.7537V32.8799C44.4068 31.4942 44.0289 30.3604 43.273 29.4786C42.3912 28.7227 41.2574 28.3448 39.8716 28.3448C38.3599 28.3448 37.1946 28.7542 36.3758 29.573C35.431 30.4549 34.9585 31.5572 34.9585 32.8799V39.6827C34.9585 41.0684 35.368 42.2337 36.1868 43.1785C37.0686 44.0604 38.2024 44.5013 39.5882 44.5013C41.1629 44.5013 42.3597 44.0919 43.1785 43.273C43.9974 42.5171 44.4068 41.3204 44.4068 39.6827V38.9268H41.0999V39.6827C41.0999 40.5645 41.0054 41.1314 40.8165 41.3834C40.5645 41.6353 40.1866 41.7613 39.6827 41.7613C39.1788 41.7613 38.8008 41.6038 38.5489 41.2889C38.3599 41.0369 38.2654 40.5015 38.2654 39.6827V36.7537H44.4068ZM38.2654 32.7854C38.2654 32.1556 38.3914 31.7146 38.6434 31.4627C38.8323 31.1477 39.1788 30.9903 39.6827 30.9903C40.1236 30.9903 40.5015 31.1477 40.8165 31.4627C41.0054 31.7776 41.0999 32.2185 41.0999 32.7854V34.3916H38.2654V32.7854Z" fill="white"/>
</svg>
